<svg xmlns="http://www.w3.org/2000/svg" data-name="Layer 1" viewBox="0 0 48 60" x="0px" y="0px"><title>7-rock climbing</title><path d="M27.06,42.81A1.22,1.22,0,0,0,25.84,44c0,.83-1,1.52-2.15,1.52s-2.14-.69-2.14-1.52a1.22,1.22,0,0,0-2.44,0c0,2.19,2.05,4,4.58,4s4.59-1.78,4.59-4A1.22,1.22,0,0,0,27.06,42.81Z"/><path d="M39.29,18.35a1.22,1.22,0,0,0-1.22,1.22c0,.82-1,1.52-2.14,1.52s-2.15-.7-2.15-1.52a1.22,1.22,0,0,0-2.44,0c0,2.19,2.06,4,4.59,4s4.58-1.78,4.58-4A1.21,1.21,0,0,0,39.29,18.35Z"/><path d="M15.44,27.83a1.21,1.21,0,0,0-1.22,1.22c0,.82-1,1.52-2.15,1.52s-2.14-.7-2.14-1.52a1.22,1.22,0,1,0-2.44,0c0,2.19,2,4,4.58,4s4.59-1.78,4.59-4A1.22,1.22,0,0,0,15.44,27.83Z"/><path d="M25,13.56a3.67,3.67,0,1,0-3.67-3.67A3.67,3.67,0,0,0,25,13.56Z"/><path d="M29.48,27.35V17.49C30.65,17,37.54,13,37.94,4.75a4,4,0,0,0,2.54-3.53,1.21,1.21,0,1,0-2.42,0,1.38,1.38,0,0,1-.72,1.13,1.85,1.85,0,0,0-1.19-.41,1.81,1.81,0,0,0-1.31.59,1.55,1.55,0,0,1-1.06-1.31,1.22,1.22,0,0,0-2.44,0,4,4,0,0,0,3,3.71,11,11,0,0,1-2.5,6c-2.38,2.93-4,3.43-7.52,3.62-.63,0-7.07.15-6.84,1.23l-1.31-5.45A3.87,3.87,0,0,0,18.19,7a1.23,1.23,0,0,0-2.45,0,1.29,1.29,0,0,1-.54,1,1.86,1.86,0,0,0-1.59-.36,1.84,1.84,0,0,0-1,.69A1.57,1.57,0,0,1,11.46,7,1.23,1.23,0,0,0,9,7a4.14,4.14,0,0,0,3.48,3.85l1.86,7.69a1.84,1.84,0,0,0,.88,1.17,1.81,1.81,0,0,0,.9.24,1.12,1.12,0,0,0,.44-.09l3.93-1.3v8.3L17.25,33.1a2,2,0,0,0,0,1.85l4.6,9A2,2,0,0,0,23.68,45a2.09,2.09,0,0,0,.91-.21,2,2,0,0,0,.87-2.68l-4.09-8L24,29.26h2l2.43,4.12L28,39.2a2,2,0,0,0,1.8,2.14h.18a2,2,0,0,0,2-1.81l.58-6.48a2,2,0,0,0-.32-1.17Z"/><text x="0" y="63" fill="#000000" font-size="5px" font-weight="bold" font-family="'Helvetica Neue', Helvetica, Arial-Unicode, Arial, Sans-serif">Created by tulpahn</text><text x="0" y="68" fill="#000000" font-size="5px" font-weight="bold" font-family="'Helvetica Neue', Helvetica, Arial-Unicode, Arial, Sans-serif">from the Noun Project</text></svg>